PathFileType	4	(X/Y/Z)	c:/Users/goper/Files/vsCode/490R/osim_files/C15/C15_SSWS_01.trc
DataRate	CameraRate	NumFrames	NumMarkers	Units                	OrigDataRate	OrigDataStartFrame	OrigNumFrames
250.00	250.00	4	36	mm	250.0	1365	2729
                Frame#	Time	LPSIS			LASIS			LTH1			LTH2			LTH3			LTH4			LLFE			LMFE			LSH1			LSH2			LSH3			LSH4			LLMAL			LMMAL			LCAL			LMTP5			LTOE			LMTP1			RPSIS			RASIS			RTH1			RTH2			RTH3			RTH4			RLFE			RMFE			RSH1			RSH2			RSH3			RSH4			RLMAL			RMMAL			RCAL			RMTP1			RTOE			RMTP5		
		X1	Y1	Z1	X2	Y2	Z2	X3	Y3	Z3	X4	Y4	Z4	X5	Y5	Z5	X6	Y6	Z6	X7	Y7	Z7	X8	Y8	Z8	X9	Y9	Z9	X10	Y10	Z10	X11	Y11	Z11	X12	Y12	Z12	X13	Y13	Z13	X14	Y14	Z14	X15	Y15	Z15	X16	Y16	Z16	X17	Y17	Z17	X18	Y18	Z18	X19	Y19	Z19	X20	Y20	Z20	X21	Y21	Z21	X22	Y22	Z22	X23	Y23	Z23	X24	Y24	Z24	X25	Y25	Z25	X26	Y26	Z26	X27	Y27	Z27	X28	Y28	Z28	X29	Y29	Z29	X30	Y30	Z30	X31	Y31	Z31	X32	Y32	Z32	X33	Y33	Z33	X34	Y34	Z34	X35	Y35	Z35	X36	Y36	Z36

1365	5.45600	126.41464	1000.44263	284.46237	-43.88511	984.62805	333.54459	-62.14529	603.29907	402.76605	-75.70358	557.71881	385.64340	-110.02910	624.25647	397.65051	-121.81824	580.52698	387.33386	-111.14860	492.16138	365.76929	-108.14799	475.26559	243.87134	-75.28239	375.42398	378.59021	-84.13189	331.22369	382.93408	-136.85957	382.42010	377.14603	-137.18199	339.07965	383.16122	-152.17404	79.38447	328.29514	-170.29776	106.77478	239.94797	-96.65126	53.61465	282.78299	-281.23587	40.61711	342.46619	-333.33331	75.35857	281.92126	-293.88522	42.19938	227.79234	134.56137	998.22681	164.07922	-15.41805	970.16211	86.91005	101.27696	609.81335	45.14924	106.85554	564.05804	53.53877	41.77921	598.41058	55.12178	55.58634	552.71466	58.94194	118.64227	467.28171	77.53275	130.29272	454.05692	194.86469	244.28117	412.99634	63.21156	267.22482	375.53766	60.14602	192.45312	374.03101	62.74449	224.57832	344.14288	57.62151	386.37857	136.07133	122.07092	347.55353	143.64453	207.15224	455.37744	132.35262	169.69887	277.75098	40.24320	208.72260	248.59764	53.85859	155.72585	308.80182	32.85470	93.29006
1366	5.46000	121.32413	1000.80060	284.79837	-49.19764	984.82458	334.05988	-66.93684	603.65149	403.44009	-79.51945	558.54236	386.67886	-114.92651	624.41541	398.38754	-126.68713	580.74664	387.98608	-116.24049	492.61432	366.10550	-111.26704	475.60818	243.97816	-79.96658	376.26810	379.63339	-88.42728	332.00580	384.04144	-141.49762	382.72946	377.35461	-141.40004	339.47617	383.63031	-153.05882	79.33131	328.12836	-171.09447	106.48200	239.86993	-97.25057	54.06229	282.75269	-281.51306	40.39725	342.17365	-333.88568	74.14222	281.26666	-293.83380	41.63216	227.27574	129.58693	998.17249	164.42950	-20.69060	969.95380	87.50909	95.53247	609.39380	45.47478	101.13186	563.62653	53.72282	36.09435	598.08185	55.27153	49.79209	552.36414	59.08591	112.61017	466.84186	77.51660	123.93665	453.40421	194.88197	238.96988	414.16919	63.42990	262.33731	376.86331	60.35993	187.59674	374.62936	62.67779	220.28328	345.07834	57.54199	384.08310	138.47632	121.67228	344.80795	145.41185	206.46907	452.77451	135.99849	169.42786	277.24127	40.46171	208.58913	248.33032	53.89223	155.60947	308.36508	33.25161	93.25643
1367	5.46400	116.32890	1001.19128	285.13568	-54.15981	985.13794	334.81064	-72.17899	604.10358	404.12570	-85.26254	558.69055	386.84195	-120.05959	624.82770	399.15421	-131.64330	581.23871	388.64017	-121.40534	493.09946	366.37881	-114.58352	476.00381	244.25256	-83.79012	377.47693	380.77368	-92.55904	332.85580	385.16446	-145.93231	382.99655	377.55334	-145.79111	339.72369	383.98929	-153.91341	79.44043	328.12692	-170.88356	106.56994	239.17044	-97.34993	54.45658	282.81647	-281.78018	40.31921	341.78757	-334.14359	73.25491	280.52695	-294.38760	40.43280	227.04105	124.44570	998.16772	164.76173	-25.82635	969.75562	88.10082	89.73119	608.95221	45.77939	95.07395	563.14429	53.89013	30.31755	597.84082	55.42561	44.00963	552.08942	59.33704	106.42590	466.54745	77.31696	117.38169	452.71851	194.75600	233.44458	415.38910	63.69222	257.31201	378.27524	60.51319	182.48026	375.28458	62.58907	215.39136	346.18451	57.46795	381.52780	140.97894	121.33979	341.82819	147.18526	205.83080	449.96280	139.80197	169.29375	276.73874	40.65625	208.44888	248.04993	53.91017	155.53578	307.91238	33.66943	93.20486
1368	5.46800	111.32168	1001.59003	285.44327	-59.20092	985.43542	335.36029	-77.31495	604.90808	404.72464	-89.96015	559.58380	387.75864	-125.43885	625.35748	399.66162	-137.17723	581.75812	389.05157	-126.74379	493.56363	366.61917	-118.28436	476.71506	244.60117	-88.05084	378.39133	381.94937	-96.53939	333.66821	386.29041	-150.22523	383.23254	377.70969	-150.24219	339.09293	383.72882	-154.57153	79.43139	328.09802	-171.16451	106.53682	239.14198	-97.45034	54.68839	282.93689	-282.06326	40.21908	341.38791	-334.29114	72.21781	279.59079	-294.02475	39.81099	226.17879	119.31277	998.12335	165.08076	-31.06545	969.58575	88.78011	83.70637	608.58191	46.08995	88.93754	562.68378	53.99617	24.41672	597.62219	55.73813	37.79871	551.55981	58.72631	102.17231	467.36258	74.80191	110.37208	451.88956	194.56734	227.32965	416.81012	63.94784	252.08731	379.78864	60.77935	177.21280	376.02890	62.38799	210.59114	347.36548	57.31774	378.72974	143.43585	120.93451	338.55637	148.91991	205.09608	446.81284	143.59433	169.02110	276.17664	40.90596	208.32915	247.71996	53.90132	155.43674	307.41611	34.09065	93.19199
